# xmcd
#
# Track frame offsets: 
#        150
#        14843
#        29025
#        44284
#        57859
#        71269
#        84460
#        98100
#        120495
#        126054
#        139244
#        153313
#        172255
#        188083
#        198169
#        211500
#        232316
#        252254
#        265751
#        281763
#
# Disc length: 3941 seconds
#
# Revision: 0
# Processed by: cddbd v1.5.2PL0 Copyright (c) Steve Scherf et al.
# Submitted via: ExactAudioCopy v0.99pb3
#
DISCID=220f6314
DTITLE=Various Artist - Classic Piano Blues
DYEAR=1900
DGENRE=Blues
TTITLE0=Memphis Slim - Dedication To Pete Johnson
TTITLE1=Booker T. Laury - Early In The Morning
TTITLE2=Speckled Red - How Long Blues
TTITLE3=Johnson, James P. And Katherine Handy Lewis - Yellow Dog Blues
TTITLE4=Memphis Slim And Jazz Gillum - Key To The Highway
TTITLE5=Meade "Lux" Lewis - Medium Blues
TTITLE6=Champion Jack Dupree - Black Wolf Blues
TTITLE7=Big Chief Ellis - Dices Blues
TTITLE8=Leadbelly - Big Fat Woman
TTITLE9=Sammy Price - Harlem Parlour Blues
TTITLE10=Brown, Henry With Edith North Johnson - Little Drops Of Water
TTITLE11=Little Brother Montgomery - Pinetop's Boogie WoogieAAA
TTITLE12=Speckled Red - Pinetop's Boogie Woogie
TTITLE13=Willie Dixon and Memphis Slim - Wish Me Well
TTITLE14=Henry Townsend - All My Money's Gone
TTITLE15=Spivey, Victoria - You're My Man
TTITLE16=Champion Jack Dupree - On My Way To See Moe Asch
TTITLE17=Sykes, Roosevelt - Sweet Old Chicacgo
TTITLE18=Montgomery, Little Bother - No Special Rider Blues
TTITLE19=James P. Johnson - Hesitation Blues
EXTD=
EXTT0=
EXTT1=
EXTT2=
EXTT3=
EXTT4=
EXTT5=
EXTT6=
EXTT7=
EXTT8=
EXTT9=
EXTT10=
EXTT11=
EXTT12=
EXTT13=
EXTT14=
EXTT15=
EXTT16=
EXTT17=
EXTT18=
EXTT19=
PLAYORDER=
